HIERARCHY
ROOT Pelvis
{
	OFFSET 0.000000 0.000000 0.000000
	CHANNELS 6 Xposition Yposition Zposition Xrotation Yrotation Zrotation
	JOINT LeftUpLeg_virtual
	{
		OFFSET 0.000000 0.000000 0.000000
		CHANNELS 3 Xrotation Yrotation Zrotation
		JOINT LeftUpLeg
		{
			OFFSET 18.735201 -5.666702 -4.541200
			CHANNELS 3 Xrotation Yrotation Zrotation
			JOINT LeftLeg
			{
				OFFSET -0.021200 -31.938179 0.493100
				CHANNELS 3 Xrotation Yrotation Zrotation
				JOINT LeftFoot
				{
					OFFSET 0.021200 -31.938179 -4.336299
					CHANNELS 3 Xrotation Yrotation Zrotation
					JOINT LeftToeBase
					{
						OFFSET 0.943001 -26.722000 15.023500
						CHANNELS 3 Xrotation Yrotation Zrotation
						End Site
						{
							OFFSET 0 0 0
						}
					}
				}
			}
		}
	}
	JOINT RightUpLeg_virtual
	{
		OFFSET 0.000000 0.000000 0.000000
		CHANNELS 3 Xrotation Yrotation Zrotation
		JOINT RightUpLeg
		{
			OFFSET -18.735201 -5.666702 -4.541200
			CHANNELS 3 Xrotation Yrotation Zrotation
			JOINT RightLeg
			{
				OFFSET 0.018946 -31.938133 0.493100
				CHANNELS 3 Xrotation Yrotation Zrotation
				JOINT RightFoot
				{
					OFFSET -0.018946 -31.938126 -4.336299
					CHANNELS 3 Xrotation Yrotation Zrotation
					JOINT RightToeBase
					{
						OFFSET -0.943001 -26.722004 15.023500
						CHANNELS 3 Xrotation Yrotation Zrotation
						End Site
						{
							OFFSET 0 0 0
						}
					}
				}
			}
		}
	}
	JOINT Hips_virtual
	{
		OFFSET 0.000000 0.000000 0.000000
		CHANNELS 3 Xrotation Yrotation Zrotation
		JOINT Hips
		{
			OFFSET -0.000000 -0.000000 -0.000000
			CHANNELS 3 Xrotation Yrotation Zrotation
			JOINT Spine
			{
				OFFSET 0.000000 10.199997 -0.299500
				CHANNELS 3 Xrotation Yrotation Zrotation
				JOINT Spine1
				{
					OFFSET 0.000000 11.900002 -1.516600
					CHANNELS 3 Xrotation Yrotation Zrotation
					JOINT Spine2
					{
						OFFSET 0.000000 13.600006 -2.842500
						CHANNELS 3 Xrotation Yrotation Zrotation
						JOINT Neck_virtual
						{
							OFFSET 0.000000 0.000000 0.000000
							CHANNELS 3 Xrotation Yrotation Zrotation
							JOINT Neck
							{
								OFFSET 0.000000 9.624100 -2.890100
								CHANNELS 3 Xrotation Yrotation Zrotation
								JOINT Head
								{
									OFFSET 0.000000 14.068802 -1.351900
									CHANNELS 3 Xrotation Yrotation Zrotation
									End Site
									{
										OFFSET 0 0 0
									}
								}
							}
						}
						JOINT LeftShoulder_virtual
						{
							OFFSET 0.000000 0.000000 0.000000
							CHANNELS 3 Xrotation Yrotation Zrotation
							JOINT LeftShoulder
							{
								OFFSET 15.263000 10.923401 -0.547700
								CHANNELS 3 Xrotation Yrotation Zrotation
								JOINT LeftArm
								{
									OFFSET 25.438599 -2.830597 -13.032500
									CHANNELS 3 Xrotation Yrotation Zrotation
									JOINT LeftForeArm
									{
										OFFSET 29.960503 0.000000 0.000000
										CHANNELS 3 Xrotation Yrotation Zrotation
										JOINT LeftHand
										{
											OFFSET 27.849251 0.000000 0.000000
											CHANNELS 3 Xrotation Yrotation Zrotation
											End Site
											{
												OFFSET 0 0 0
											}
										}
									}
								}
							}
						}
						JOINT RightShoulder_virtual
						{
							OFFSET 0.000000 0.000000 0.000000
							CHANNELS 3 Xrotation Yrotation Zrotation
							JOINT RightShoulder
							{
								OFFSET -15.263000 10.923401 -0.547700
								CHANNELS 3 Xrotation Yrotation Zrotation
								JOINT RightArm
								{
									OFFSET -25.438599 -2.830597 -13.032500
									CHANNELS 3 Xrotation Yrotation Zrotation
									JOINT RightForeArm
									{
										OFFSET -29.960503 0.000000 0.000000
										CHANNELS 3 Xrotation Yrotation Zrotation
										JOINT RightHand
										{
											OFFSET -27.849251 0.000000 0.000000
											CHANNELS 3 Xrotation Yrotation Zrotation
											End Site
											{
												OFFSET 0 0 0
											}
										}
									}
								}
							}
						}
					}
				}
			}
		}
	}
}
MOTION
Frames: 5
Frame Time: 0.03333333
-27.275555 12.736591 11.683479 0.000000 0.000000 0.000000 44.239303 11.142985 64.108258 -92.288874 62.703104 38.071953 101.599392 -32.895455 57.513922 58.909070 36.814952 -63.867583 0.000000 0.000000 0.000000 41.967688 9.620218 62.531188 -159.303193 65.239925 116.981770 162.102546 -30.439995 82.918681 74.658428 -27.214930 52.928130 0.000000 0.000000 0.000000 42.859119 9.748522 64.504143 -0.649682 -1.671453 0.120655 13.189136 -20.367052 -22.973674 14.064969 0.247104 -3.696274 0.000000 0.000000 0.000000 2.106534 -1.737873 -1.366981 4.627909 1.007434 0.818943 0.000000 0.000000 0.000000 4.507715 -1.647254 -0.143221 -7.887287 -25.709664 -22.691944 -83.896354 -27.404450 -58.333504 -67.005583 -62.556002 -51.937097 0.000000 0.000000 0.000000 -1.159174 -1.821887 0.477668 -2.224732 17.707286 -25.749294 -103.445435 18.099313 22.971837 -8.643294 47.658915 14.089949 0.000000 0.000000 0.000000 
-27.636070 12.441116 10.874611 0.000000 0.000000 0.000000 42.759638 9.131819 64.623944 -91.468835 63.223018 39.155101 102.082525 -33.198360 57.619168 58.262381 37.094860 -62.940651 0.000000 0.000000 0.000000 40.511747 7.646431 62.911028 -159.346046 65.340766 118.127848 162.345428 -29.721899 82.805177 74.949496 -28.310185 52.441506 0.000000 0.000000 0.000000 41.349593 7.628117 64.752864 -0.640881 -1.674663 0.099355 12.549256 -20.276723 -23.455850 15.494153 0.086137 -3.854292 0.000000 0.000000 0.000000 4.138918 -1.555110 -1.716238 4.538893 0.883420 0.694717 0.000000 0.000000 0.000000 6.472780 -1.445909 -0.509897 -8.569113 -24.936677 -24.540101 -85.144175 -29.893453 -58.963787 -72.237283 -63.898237 -56.267546 0.000000 0.000000 0.000000 0.340668 -1.520823 0.172399 -2.401238 16.860392 -26.675268 -105.678312 16.406382 26.090810 -6.453119 49.209761 11.107973 0.000000 0.000000 0.000000 
-28.011333 12.196476 10.234222 0.000000 0.000000 0.000000 41.299203 6.710744 65.176541 -90.440638 63.848451 40.279043 102.549696 -33.504284 57.730890 58.149034 37.239568 -62.104977 0.000000 0.000000 0.000000 39.063751 5.312515 63.304065 -159.023114 65.421218 118.850237 162.440190 -28.960289 82.515864 75.924000 -28.935851 51.940317 0.000000 0.000000 0.000000 39.920813 4.989478 65.141290 -0.629825 -1.699124 0.092477 11.716953 -20.028763 -23.937670 16.809565 0.035456 -4.025287 0.000000 0.000000 0.000000 5.929666 -1.234083 -1.960246 4.469767 0.719454 0.646432 0.000000 0.000000 0.000000 8.256020 -1.140313 -0.835586 -9.196911 -23.669782 -26.700195 -85.449601 -32.444467 -59.399403 -80.099800 -65.407879 -63.315806 0.000000 0.000000 0.000000 1.798993 -1.111010 -0.151366 -2.734930 16.007134 -26.972513 -107.731713 14.789205 29.482160 -4.365041 51.172880 8.469798 0.000000 0.000000 0.000000 
-28.336456 11.988243 9.763458 0.000000 0.000000 0.000000 40.010849 3.945706 65.775500 -89.007194 64.486821 40.992989 103.072363 -33.745523 57.919082 58.344739 37.320724 -61.450215 0.000000 0.000000 0.000000 37.718108 2.724695 63.744919 -158.538403 65.496904 119.362610 162.448099 -28.276737 82.103546 77.527367 -28.946615 51.389442 0.000000 0.000000 0.000000 38.644753 2.000272 65.677931 -0.617415 -1.731014 0.106458 10.846657 -19.669405 -24.380304 17.966901 -0.006632 -4.138851 0.000000 0.000000 0.000000 7.431930 -0.893063 -2.050237 4.390550 0.529043 0.661260 0.000000 0.000000 0.000000 9.846435 -0.852736 -1.045995 -9.649024 -22.014944 -28.739086 -84.981664 -34.614497 -59.724335 -90.120965 -66.656649 -72.613667 0.000000 0.000000 0.000000 3.246517 -0.699988 -0.436525 -3.148093 15.271856 -26.869390 -109.502399 13.379870 32.870647 -2.332093 53.144466 6.152598 0.000000 0.000000 0.000000 
-28.594250 11.768120 9.411888 0.000000 0.000000 0.000000 38.987799 1.036048 66.433289 -86.773428 64.999044 40.692983 103.750321 -33.968368 58.378023 58.170529 37.362419 -61.031306 0.000000 0.000000 0.000000 36.533213 0.046223 64.277162 -157.999597 65.668417 119.827965 162.488602 -27.771496 81.774433 78.925821 -28.682208 50.957524 0.000000 0.000000 0.000000 37.523430 -1.040626 66.294410 -0.612984 -1.754941 0.126509 10.095756 -19.267388 -24.659618 18.937102 -0.139490 -4.181105 0.000000 0.000000 0.000000 8.625554 -0.648967 -2.036212 4.265109 0.328749 0.712604 0.000000 0.000000 0.000000 11.244179 -0.696680 -1.141001 -9.885315 -20.290320 -30.240167 -84.214737 -36.042253 -60.182347 -99.300828 -67.319362 -81.153275 0.000000 0.000000 0.000000 4.749516 -0.411012 -0.670534 -3.570116 14.675713 -26.758581 -111.040018 12.358949 36.266454 -0.446068 54.133040 4.168029 0.000000 0.000000 0.000000 
